<svg width="124" height="180" viewBox="0 0 124 180" fill="none" xmlns="http://www.w3.org/2000/svg">
<path d="M62 123.75C80.6775 123.75 95.8182 108.64 95.8182 90V33.75C95.8182 15.1102 80.6775 0 62 0C43.3225 0 28.1818 15.1102 28.1818 33.75V90C28.1818 108.64 43.3225 123.75 62 123.75ZM118.364 67.5H112.727C109.613 67.5 107.091 70.0172 107.091 73.125V90C107.091 116.297 84.3728 137.398 57.4944 134.782C34.0683 132.5 16.9091 111.484 16.9091 87.9961V73.125C16.9091 70.0172 14.3868 67.5 11.2727 67.5H5.63636C2.52227 67.5 0 70.0172 0 73.125V87.2437C0 118.758 22.5349 146.851 53.5455 151.119V163.125H33.8182C30.7041 163.125 28.1818 165.642 28.1818 168.75V174.375C28.1818 177.483 30.7041 180 33.8182 180H90.1818C93.2959 180 95.8182 177.483 95.8182 174.375V168.75C95.8182 165.642 93.2959 163.125 90.1818 163.125H70.4545V151.253C100.648 147.118 124 121.254 124 90V73.125C124 70.0172 121.478 67.5 118.364 67.5Z" fill="white"/>
</svg>
