<svg width="26" height="25" viewBox="0 0 26 25" fill="none" xmlns="http://www.w3.org/2000/svg">
<path d="M13 0C6.31055 0 0.890625 5.41992 0.890625 12.1094C0.890625 18.7988 6.31055 24.2188 13 24.2188C19.6895 24.2188 25.1094 18.7988 25.1094 12.1094C25.1094 5.41992 19.6895 0 13 0ZM16.9062 8.20312C17.7705 8.20312 18.4688 8.90137 18.4688 9.76562C18.4688 10.6299 17.7705 11.3281 16.9062 11.3281C16.042 11.3281 15.3438 10.6299 15.3438 9.76562C15.3438 8.90137 16.042 8.20312 16.9062 8.20312ZM9.09375 8.20312C9.95801 8.20312 10.6562 8.90137 10.6562 9.76562C10.6562 10.6299 9.95801 11.3281 9.09375 11.3281C8.22949 11.3281 7.53125 10.6299 7.53125 9.76562C7.53125 8.90137 8.22949 8.20312 9.09375 8.20312ZM18.6055 16.5137C17.2139 18.1836 15.1729 19.1406 13 19.1406C10.8271 19.1406 8.78613 18.1836 7.39453 16.5137C6.73047 15.7178 7.93164 14.7217 8.5957 15.5127C9.68945 16.8262 11.291 17.5732 13 17.5732C14.709 17.5732 16.3105 16.8213 17.4043 15.5127C18.0586 14.7217 19.2646 15.7178 18.6055 16.5137Z" fill="#30DB5B"/>
</svg>
