<svg width="246" height="116" viewBox="0 0 246 116" fill="none" xmlns="http://www.w3.org/2000/svg">
<path d="M94.8989 12.8952H66.1124H65.427L66.0341 47.6603C66.0861 50.6409 66.4412 53.6255 67.3627 56.4605C71.7859 70.0686 79.4429 78.1711 93.6815 81.3134C98.5327 82.384 103.599 82.3093 108.419 81.108C114.616 79.5638 119.308 77.0908 123.262 73.1226C125.581 63.0663 128.208 56.369 135.337 48.9874V12.8952H105.865V44.7218C105.865 46.3899 105.205 47.9901 104.028 49.1723C102.339 50.8696 99.6476 51.0372 97.7608 49.5627L97.5083 49.3654C95.8614 48.0785 94.8989 46.1048 94.8989 44.0147V12.8952Z" fill="#30DB5B" stroke="#30DB5B"/>
<path fill-rule="evenodd" clip-rule="evenodd" d="M1 0.5V91.3982H45.7809C48.086 91.3982 50.3888 91.1335 52.6032 90.4937C62.6338 87.5956 70.3217 83.5654 75.5421 78.3144C68.5175 72.5793 65.2167 67.2819 61.7825 56.0961C60.9818 53.4881 60.6292 50.7636 60.6292 48.0355V8.76347H73.7342C68.4844 4.37713 61.1029 2.45408 52.2548 0.978206C50.2585 0.645228 48.2354 0.5 46.2115 0.5H1ZM33.8989 35.2066V56.1407H43.3522C45.4314 56.1407 47.5884 55.8154 49.2051 54.5081C50.779 53.2354 51.7322 51.6087 52.4099 49.06C52.9993 46.8433 53.1352 44.4792 52.492 42.2775C51.8167 39.9661 50.604 38.3533 48.5001 36.6641C47.2472 35.6582 45.6508 35.2066 44.044 35.2066H33.8989Z" fill="#30DB5B"/>
<path d="M1 91.3982H0.5V91.8982H1V91.3982ZM1 0.5V0H0.5V0.5H1ZM52.6032 90.4937L52.4644 90.0134L52.4644 90.0134L52.6032 90.4937ZM75.5421 78.3144L75.8967 78.6669L76.2855 78.2758L75.8583 77.9271L75.5421 78.3144ZM61.7825 56.0961L62.2605 55.9493L62.2605 55.9493L61.7825 56.0961ZM60.6292 8.76347V8.26347H60.1292V8.76347H60.6292ZM73.7342 8.76347V9.26347H75.1124L74.0548 8.37978L73.7342 8.76347ZM52.2548 0.978206L52.337 0.48502L52.337 0.48502L52.2548 0.978206ZM33.8989 56.1407H33.3989V56.6407H33.8989V56.1407ZM33.8989 35.2066V34.7066H33.3989V35.2066H33.8989ZM49.2051 54.5081L49.5195 54.8969L49.5195 54.8969L49.2051 54.5081ZM52.4099 49.06L52.8931 49.1885L52.8931 49.1885L52.4099 49.06ZM52.492 42.2775L52.9719 42.1373L52.9719 42.1373L52.492 42.2775ZM48.5001 36.6641L48.8131 36.2743L48.8131 36.2743L48.5001 36.6641ZM1.5 91.3982V0.5H0.5V91.3982H1.5ZM45.7809 90.8982H1V91.8982H45.7809V90.8982ZM52.4644 90.0134C50.3032 90.6378 48.0483 90.8982 45.7809 90.8982V91.8982C48.1236 91.8982 50.4743 91.6293 52.742 90.9741L52.4644 90.0134ZM75.1875 77.9618C70.0481 83.1313 62.448 87.1288 52.4644 90.0134L52.742 90.9741C62.8195 88.0624 70.5952 83.9994 75.8967 78.6669L75.1875 77.9618ZM61.3045 56.2428C63.0274 61.8547 64.7262 66.0214 66.8909 69.5127C69.0593 73.01 71.6818 75.8082 75.2259 78.7017L75.8583 77.9271C72.3778 75.0854 69.8376 72.3674 67.7408 68.9858C65.6405 65.5983 63.9717 61.5233 62.2605 55.9493L61.3045 56.2428ZM60.1292 48.0355C60.1292 50.8062 60.4873 53.581 61.3045 56.2428L62.2605 55.9493C61.4764 53.3953 61.1292 50.7209 61.1292 48.0355H60.1292ZM60.1292 8.76347V48.0355H61.1292V8.76347H60.1292ZM73.7342 8.26347H60.6292V9.26347H73.7342V8.26347ZM52.1725 1.47139C61.0192 2.94702 68.2773 4.85564 73.4136 9.14717L74.0548 8.37978C68.6915 3.89862 61.1866 1.96113 52.337 0.48502L52.1725 1.47139ZM46.2115 1C48.2116 1 50.2069 1.14353 52.1725 1.47139L52.337 0.48502C50.3101 0.146921 48.2591 0 46.2115 0V1ZM1 1H46.2115V0H1V1ZM34.3989 56.1407V35.2066H33.3989V56.1407H34.3989ZM43.3522 55.6407H33.8989V56.6407H43.3522V55.6407ZM48.8907 54.1193C47.4102 55.3165 45.3977 55.6407 43.3522 55.6407V56.6407C45.465 56.6407 47.7666 56.3144 49.5195 54.8969L48.8907 54.1193ZM51.9267 48.9315C51.2678 51.4096 50.3598 52.9313 48.8907 54.1193L49.5195 54.8969C51.1982 53.5394 52.1966 51.8079 52.8931 49.1885L51.9267 48.9315ZM52.012 42.4178C52.6231 44.5094 52.4995 46.7774 51.9267 48.9315L52.8931 49.1885C53.4992 46.9093 53.6472 44.4489 52.9719 42.1373L52.012 42.4178ZM48.1871 37.054C50.2311 38.6951 51.372 40.2268 52.012 42.4178L52.9719 42.1373C52.2614 39.7054 50.9768 38.0114 48.8131 36.2743L48.1871 37.054ZM44.044 35.7066C45.5611 35.7066 47.0401 36.1332 48.1871 37.054L48.8131 36.2743C47.4543 35.1833 45.7404 34.7066 44.044 34.7066V35.7066ZM33.8989 35.7066H44.044V34.7066H33.8989V35.7066Z" fill="#30DB5B"/>
<path d="M169.607 73.5162V45.9713C146.27 45.6289 135.862 49.0988 129.683 66.3718C128.814 68.8012 128.483 71.3832 128.483 73.9633V112.768H156.584V74.5162C156.584 73.964 157.032 73.5162 157.584 73.5162H169.607Z" fill="#30DB5B" stroke="#30DB5B"/>
<path d="M204.562 45.9491H175.775H175.09V79.3131C175.09 83.2148 175.634 87.1184 177.009 90.7698C182.739 105.984 189.761 112.102 203.968 114.609C208.432 115.397 213.031 115.396 217.466 114.456C230.28 111.738 236.841 105.264 243.011 90.3312C244.399 86.9712 245 83.3403 245 79.7049V45.9491H215.528V77.7757C215.528 79.4438 214.867 81.044 213.691 82.2262C212.001 83.9235 209.31 84.0911 207.424 82.6166L207.171 82.4193C205.524 81.1324 204.562 79.1587 204.562 77.0686V45.9491Z" fill="#30DB5B" stroke="#30DB5B"/>
</svg>
