<svg width="26" height="25" viewBox="0 0 26 25" fill="none" xmlns="http://www.w3.org/2000/svg">
<path d="M13 0C6.31055 0 0.890625 5.41992 0.890625 12.1094C0.890625 18.7988 6.31055 24.2188 13 24.2188C19.6895 24.2188 25.1094 18.7988 25.1094 12.1094C25.1094 5.41992 19.6895 0 13 0ZM13 4.6875C15.373 4.6875 17.2969 6.61133 17.2969 8.98438C17.2969 11.3574 15.373 13.2812 13 13.2812C10.627 13.2812 8.70312 11.3574 8.70312 8.98438C8.70312 6.61133 10.627 4.6875 13 4.6875ZM13 21.4844C10.1338 21.4844 7.56543 20.1855 5.84668 18.1543C6.76465 16.4258 8.56152 15.2344 10.6562 15.2344C10.7734 15.2344 10.8906 15.2539 11.0029 15.2881C11.6377 15.4932 12.3018 15.625 13 15.625C13.6982 15.625 14.3672 15.4932 14.9971 15.2881C15.1094 15.2539 15.2266 15.2344 15.3438 15.2344C17.4385 15.2344 19.2354 16.4258 20.1533 18.1543C18.4346 20.1855 15.8662 21.4844 13 21.4844Z" fill="#AAAAAA"/>
</svg>
